<?xml version="1.0" encoding="UTF-8" standalone="no"?>
<!-- Generator: Gravit.io -->
<svg xmlns="http://www.w3.org/2000/svg" xmlns:xlink="http://www.w3.org/1999/xlink" style="isolation:isolate" viewBox="0 0 102.4 128" width="102.4pt" height="128pt"><defs><clipPath id="_clipPath_cuJAR6Whi1fWP2mphOi5jMOfTXId87iG"><rect width="102.4" height="128"/></clipPath></defs><g clip-path="url(#_clipPath_cuJAR6Whi1fWP2mphOi5jMOfTXId87iG)"><path d=" M 102.4 0 L 0 0 L 0 106.8 C -0.1 109.4 0.3 111.5 1.4 113 C 2.6 114.6 4.5 115.5 7.5 115.5 C 7.7 115.5 8 115.5 8.2 115.5 L 39.6 115.5 C 47.9 115.6 50.5 121.3 51.6 128 C 52.7 121.3 55 115.8 63.3 115.5 L 95.5 115.5 C 98.3 115.2 100.2 114 101.2 112.3 C 102.1 110.8 102.5 109 102.5 106.9 L 102.4 0 Z " fill="rgb(0,0,0)"/><path d=" M 101.6 0.8 L 101.6 106.9 C 101.6 109 101.2 110.7 100.5 111.9 C 99.5 113.5 97.8 114.4 95.4 114.7 L 63.2 114.7 C 55.8 115 52.9 119.1 51.5 124.2 C 50.1 119.3 47 114.8 39.5 114.7 L 7.5 114.7 C 4.9 114.7 3.1 114 2.1 112.5 C 1.2 111.2 0.8 109.4 0.8 106.8 L 0.8 0.8 L 101.6 0.8 Z " fill="rgb(210,0,0)"/><path d=" M 42 78.4 L 42 83.3 L 43 84.5 L 59.7 84.5 L 60.7 83.3 L 60.7 78.4 L 55.4 78.4 L 55.4 79.4 L 52.4 79.4 L 51.3 80.7 L 50.2 79.4 L 47.2 79.4 L 47.2 78.3 L 42 78.4 L 42 78.4 L 42 78.4 Z  M 72.7 78.4 L 72.7 85.9 C 72.8 86.6 73.1 87.2 73.9 87.5 L 73.9 88 L 80.5 92.7 L 80.5 93.8 L 86.2 98 L 86.3 102.7 L 16.5 102.7 L 16.6 98 L 22.3 93.8 L 22.3 92.7 L 28.9 88 L 28.9 87.5 C 29.6 87.2 29.9 86.6 30.1 85.9 L 30.1 78.4 L 29.4 78.4 L 29.4 70.2 L 29.8 70.2 C 29.2 69.8 28.8 69.2 28.5 68.6 L 28.3 69 C 28.1 70.1 28.2 71.2 28.5 72.3 C 28.7 73.3 28.5 74 27.3 74 C 26.6 74.7 25.9 74.6 25.3 74.1 C 24.7 74.2 24 73.8 23.9 73.1 C 23.3 72.9 23.3 72.1 24.1 71.3 C 24.9 70.5 24.9 69.5 24.8 68.5 C 24.6 68 24.8 67.6 25.2 67.3 C 24.7 66.4 25.1 65.3 26 64.9 C 26.6 64.6 27.3 64.6 27.8 65 L 28.2 65 C 28.7 63.5 30 62.4 31.6 62.1 L 31.6 62 L 31.6 62 C 30.8 60.2 31.7 57.9 34.2 56.9 L 35.4 56.9 L 36.1 55.9 L 36.1 12.1 L 37 12.1 L 39.7 9.7 L 42.4 12.1 L 43.3 12.1 L 43.3 14 L 44.7 14 L 44.7 12.1 L 46.8 12.1 L 46.8 9.2 L 49.6 9.2 L 51.4 7.6 L 53.2 9.2 L 56 9.2 L 56 12.1 L 58 12.1 L 58 14 L 59.4 14 L 59.4 12.1 L 60.3 12.1 L 63 9.7 L 65.7 12.1 L 66.6 12.1 L 66.6 55.9 L 67.3 57 L 68.5 57 C 71.1 58 71.9 60.3 71.1 62.1 L 71.2 62.1 L 71.2 62.2 C 72.8 62.5 74.1 63.6 74.6 65.1 L 75 65.1 C 75.8 64.6 76.9 64.8 77.5 65.6 C 77.9 66.1 77.9 66.9 77.6 67.4 C 78 67.7 78.2 68.2 78 68.6 C 77.9 69.6 77.9 70.6 78.7 71.4 C 79.5 72.2 79.4 72.9 78.9 73.2 C 78.8 73.8 78.2 74.2 77.5 74.2 C 76.9 74.7 76.2 74.9 75.5 74.1 C 74.3 74.1 74.1 73.4 74.3 72.4 C 74.6 71.3 74.6 70.2 74.5 69.1 L 74.4 68.6 C 74.1 69.2 73.6 69.8 73.1 70.2 L 73.5 70.2 L 73.5 78.4 L 72.7 78.4 L 72.7 78.4 L 72.7 78.4 Z " fill="rgb(0,0,0)"/><path d=" M 36.3 59.7 L 37.7 59.3 C 38.3 58.9 39 58.9 39.6 59.2 L 40.2 59.2 C 40.5 59 40.9 59 41.1 58.8 C 41.4 58.6 41.5 58.4 41.7 58.6 L 41.7 59.2 C 41.9 59.3 42.2 59.3 42.4 59.2 C 42.9 59.1 43.2 58.9 43.5 58.5 C 43.7 58.3 44 58.2 44.3 58.4 L 44.3 58.4 L 44.4 58.5 L 44.3 59.1 C 45 59.3 45.7 59.4 45.7 58.8 C 46.2 58.4 46.6 58.1 46.9 58.8 C 47.2 59.1 47.5 59.3 48 58.8 C 48.2 58.6 48.4 58.6 48.5 58.8 L 48.5 58.8 C 48.6 59.1 48.9 59.1 49.3 58.8 C 49.5 59.2 49.8 59.4 50.4 58.8 C 50.7 58.6 51.1 58.6 51.4 58.8 C 51.9 59.1 52.5 59.7 52.3 58.8 C 52.4 58.5 52.7 58.2 53 58.8 C 53.3 59.1 53.5 59.3 53.8 58.9 C 54 58.7 54.2 58.7 54.4 58.8 C 54.4 58.8 54.5 58.9 54.5 58.9 C 54.7 59.3 55 59.4 55.2 59 C 55.4 58.4 55.7 58.4 55.9 59.1 C 56.1 59.2 56.4 59.2 56.6 59.2 C 56.9 59 57.3 58.8 57.6 59.3 L 58.1 59.2 L 58 58.8 L 58.6 58.8 L 58.9 59.3 C 59.1 59.5 59.2 59.5 59.3 59.3 C 59.5 59 59.7 59 59.9 59.4 C 60.4 59.6 60.7 59.4 60.6 59 L 61.2 58.9 L 62.1 59.4 C 62.2 59.6 62.5 59.7 62.7 59.6 C 62.8 59.6 62.8 59.5 62.9 59.4 L 63 58.9 C 63.3 58.7 63.5 58.6 63.8 59.1 L 64.2 59.4 C 64.5 59.7 64.7 59.7 64.9 59.4 L 65.1 59.1 L 65.7 59.1 L 66.2 59.6 L 67 59.7 L 67.9 59.6 L 68.3 60.5 L 68 60.8 L 66.9 60.6 C 66.5 61.4 66.1 61.3 65.6 60.4 L 65.1 60.4 L 64.8 61.1 L 64.5 60.5 L 64 60.5 L 64 60.7 L 63.7 60.3 L 63.3 60.4 L 63 61.1 L 62.6 60.5 L 62.1 60.3 L 62 60.9 L 61.7 60.4 L 61.1 60.4 L 61 61.2 L 60.6 60.4 L 60.1 60.4 C 60 60.7 59.8 60.7 59.5 60.4 C 59.1 60 58.9 60.2 58.7 60.5 C 58.1 61 57.9 60.6 57.5 60.3 C 57.3 60.5 57.1 60.5 56.9 60.3 L 56.7 60.4 C 56.4 60.1 56.2 60.2 56.1 60.6 C 55.9 60.8 55.6 60.7 55.4 60.5 C 55.2 60.2 55.1 60.2 54.9 60.4 C 54.8 60.7 54.6 60.7 54.2 60.5 L 54 61 L 53.4 60.5 L 52.9 60.4 L 52.6 60.8 L 52.1 60.5 C 52 61.1 51.6 61.1 51.1 60.4 C 50.9 60.1 50.7 60.1 50.5 60.3 L 50.4 60.8 L 50 60.4 L 49.6 60.4 L 49.3 60.9 L 49.1 61 L 48.8 60.5 C 48.4 60.1 48.2 60.3 48.2 60.7 L 48.7 61.7 C 48.2 61.6 47.9 61.2 47.8 60.6 L 47.5 60.6 C 47 61 46.7 60.7 46.5 60.3 C 46.3 59.9 46.1 60.1 45.9 60.2 C 45.6 60.8 45.1 60.7 44.3 60.1 C 44.1 59.7 43.9 59.8 43.7 60 L 43.5 60.4 C 42.7 60.6 42.2 60.5 42 60 C 41.9 59.9 41.7 59.9 41.6 60.1 L 41.3 60.5 C 41.2 60.8 40.9 60.8 40.6 60.6 L 39.9 60 C 39.8 59.9 39.7 59.8 39.6 59.9 C 39.6 59.9 39.5 60 39.5 60 C 39.1 60.2 38.8 60.1 38.7 59.6 C 38.6 59.4 38.4 59.3 38.2 59.4 C 38.1 59.4 38 59.5 38 59.6 L 36.5 60 C 36.1 60.1 36.1 59.9 36.3 59.7 Z " fill="rgb(161,90,65)"/><path d=" M 43.9 48.4 C 44.2 47.9 44.8 47.7 45.1 47.9 C 45.4 48.1 45.4 48.7 45.1 49.2 C 44.8 49.7 44.2 49.9 43.9 49.7 C 43.6 49.5 43.6 48.9 43.9 48.4 Z  M 58.8 48.4 C 58.5 47.9 57.9 47.7 57.6 47.9 C 57.3 48.1 57.3 48.7 57.6 49.2 C 57.9 49.7 58.5 49.9 58.8 49.7 C 59.1 49.5 59.1 48.9 58.8 48.4 Z " fill="rgb(0,154,255)"/><path d=" M 51.4 40.9 C 51.8 40.9 52.1 40.7 52.2 40.3 L 50.6 40.3 C 50.7 40.7 51 40.9 51.4 40.9 Z  M 51.4 36.6 C 51.8 36.6 52.1 36.8 52.2 37.2 L 50.6 37.2 C 50.7 36.8 51 36.6 51.4 36.6 Z  M 52.3 49.5 C 52.2 49.1 51.9 47.9 51.3 47.9 C 50.8 47.9 50.5 49.1 50.3 49.5 C 50.1 50 50.1 50.7 50.6 51.1 C 51 51.5 51.6 51.5 52 51.1 C 52.5 50.7 52.5 50.1 52.3 49.5 Z " fill="rgb(210,0,0)"/><path d=" M 53.3 68.2 C 53.2 68.8 53.1 69.3 52.9 69.9 L 52.9 69.9 L 70.4 69.9 C 71.6 69.9 72.8 69.3 73.4 68.2 L 53.3 68.2 Z  M 32.3 69.9 L 49.8 69.9 L 49.8 69.9 C 50.2 69.4 50.5 68.8 50.7 68.2 L 29.3 68.2 C 29.9 69.3 31 69.9 32.3 69.9 Z  M 73.6 65 C 73.1 63.8 71.9 63.1 70.6 63 C 70.1 63.6 69.3 64 68.6 64.3 L 53.1 64.3 C 53.2 64.5 53.2 64.8 53.3 65 L 73.6 65 Z  M 50.3 65 C 50.2 64.7 50 64.5 49.8 64.3 L 34.1 64.3 C 33.3 64.1 32.6 63.6 32.1 63 C 30.8 63.1 29.7 63.8 29.1 65 L 50.3 65 L 50.3 65 L 50.3 65 Z " fill="rgb(0,142,31)"/><path d=" M 62.7 12 L 62 12 L 62.8 11.3 L 62.8 12 L 62.7 12 Z  M 63.3 12 L 64.1 12 L 63.3 11.3 L 63.3 12 L 63.3 12 Z  M 64 22.5 L 63 19.8 L 62.1 22.6 L 64 22.6 M 62.1 15.2 L 63 18 L 63.9 15.2 L 62.1 15.2 Z  M 64.3 20.2 L 64.3 17.4 L 63.5 18.8 L 64.3 20.2 Z  M 61.7 17.5 L 61.7 20.3 L 62.5 18.9 L 61.7 17.5 Z  M 64.6 14.4 L 61.3 14.4 C 61.1 14.4 60.9 14.6 60.9 14.8 L 60.9 14.8 L 60.9 23 C 60.9 23.2 61.1 23.4 61.3 23.4 L 61.3 23.4 L 64.6 23.4 C 64.8 23.4 65 23.2 65 23 L 65 14.7 C 65 14.5 64.8 14.4 64.6 14.4 L 64.6 14.4 L 64.6 14.4 Z  M 60.2 25.6 L 60.2 47.3 L 60.3 47.4 C 60.7 47.1 61.4 47.1 61.7 47.6 C 61.7 47.6 61.8 47.7 61.8 47.7 L 61.8 28.7 C 61.8 28.5 62 28.3 62.2 28.2 L 63.5 28.2 C 63.7 28.2 63.9 28.4 63.9 28.7 L 63.9 51.3 C 64.5 51.2 65 51.6 65.1 52.1 C 65.2 52.5 65 52.9 64.7 53.1 C 65.1 53.6 65.5 54.2 65.8 54.7 L 65.8 25.6 L 60.2 25.6 Z  M 62.6 50.3 L 63 50.8 L 63 29.1 L 62.6 29.1 L 62.6 50.3 L 62.6 50.3 Z  M 60.2 12.9 L 65.8 12.9 L 65.8 24.8 L 60.2 24.8 L 60.2 12.9 L 60.2 12.9 Z  M 27.6 66.5 C 27.6 67 27.2 67.4 26.8 67.4 L 26.8 67.4 C 26.3 67.4 26 67 26 66.5 L 26 66.5 C 26 66 26.4 65.6 26.8 65.6 L 26.8 65.6 C 27.2 65.7 27.6 66.1 27.6 66.5 L 27.6 66.5 Z  M 76.8 66.5 C 76.8 67 76.4 67.4 75.9 67.4 L 75.9 67.4 C 75.4 67.4 75 67 75 66.5 L 75 66.5 C 75 66 75.4 65.6 75.9 65.6 L 75.9 65.6 C 76.4 65.7 76.8 66.1 76.8 66.5 L 76.8 66.5 Z  M 52.1 34.2 C 52.1 34.6 51.8 34.9 51.4 34.9 C 51 34.9 50.7 34.6 50.7 34.2 C 50.7 33.8 51 33.5 51.4 33.5 C 51.8 33.4 52.1 33.8 52.1 34.2 Z  M 40.6 22.5 L 39.7 19.7 L 38.8 22.5 L 40.6 22.5 Z  M 38.7 15.2 L 39.6 18 L 40.5 15.2 L 38.7 15.2 Z  M 40.9 20.2 L 40.9 17.4 L 40.1 18.8 L 40.9 20.2 Z  M 38.4 17.4 L 38.4 20.2 L 39.2 18.8 L 38.4 17.4 Z  M 68.9 73.8 L 70.2 72.6 L 67.6 72.6 L 68.9 73.8 Z  M 68.9 74.7 L 67.6 75.9 L 70.2 75.9 L 68.9 74.7 Z  M 69.7 74.2 L 70.9 75.5 L 70.9 72.9 L 69.7 74.2 Z  M 68 74.2 L 66.8 75.5 L 66.8 72.9 L 68 74.2 Z  M 33.8 73.8 L 32.5 72.6 L 35.1 72.6 L 33.8 73.8 Z  M 33.8 74.7 L 35.1 75.9 L 32.5 75.9 L 33.8 74.7 Z  M 33 74.2 L 31.8 75.5 L 31.8 72.9 L 33 74.2 Z  M 34.7 74.2 L 35.9 75.5 L 35.9 72.9 L 34.7 74.2 Z  M 51.8 70.1 L 50.7 70.1 C 52 68.4 52.1 66.1 51 64.3 L 52 64.3 C 52.1 64.4 53.5 67.5 51.8 70.1 Z  M 52.5 43.9 L 50.1 43.9 C 47.1 47.4 44.8 51.8 42.9 56.9 L 48 56.9 L 48.9 56.1 C 49.1 55.9 49.2 55.8 49.1 55.6 L 48.3 54.5 C 48.1 54.3 48 54 48.2 53.8 C 48.5 53.4 49.2 53.2 49.9 53.2 C 49.3 52.8 49.4 52.1 50.4 52.3 L 50.8 52.1 C 50.2 51.9 49.8 51.6 49.4 51.1 C 48.9 50.3 49.1 49.5 49.5 48.5 C 49.7 48 50 47.5 50.3 47 C 49.5 46.5 49.3 45.4 49.8 44.7 C 50.3 43.9 51.4 43.7 52.1 44.2 C 52.9 44.7 53.1 45.8 52.6 46.5 C 52.4 46.7 52.2 46.9 52 47.1 C 52.3 47.5 52.6 48 52.8 48.5 C 53.2 49.4 53.3 50.3 52.9 51.1 C 52.6 51.6 52.1 52 51.5 52.1 L 51.9 52.3 C 52.8 52.1 52.9 52.8 52.4 53.2 C 53.1 53.2 53.8 53.4 54.1 53.8 C 54.3 54 54.2 54.3 54 54.5 L 53.2 55.6 C 53.1 55.7 53.2 55.9 53.4 56.1 L 54.3 56.9 L 59.4 56.9 C 57.8 51.8 55.5 47.4 52.5 43.9 Z  M 75.1 67.9 C 75 68.6 75 69.4 75.5 70 C 75.6 69.2 75.6 68.4 75.1 67.9 Z  M 75.1 71.2 C 75 72 75 72.7 75.4 73.3 C 75.5 72.4 75.6 71.7 75.1 71.2 Z  M 77 71.2 C 76.9 71.9 76.9 72.7 77.4 73.3 C 77.5 72.4 77.5 71.7 77 71.2 Z  M 76 69.7 C 75.9 70.4 75.9 71.1 76.4 71.8 C 76.5 70.9 76.5 70.2 76 69.7 Z  M 76.6 68 C 76.5 68.7 76.5 69.5 77 70.1 C 77.1 69.2 77.1 68.5 76.6 68 Z  M 53.4 65.9 L 53.4 65.9 L 53.4 65.9 L 53.4 65.9 Z  M 53.4 65.9 C 53.4 66.4 53.4 66.8 53.4 67.3 L 74.2 67.3 L 74.2 65.9 L 53.4 65.9 Z  M 50.7 65.9 L 28.5 65.9 L 28.5 67.3 L 50.8 67.3 C 50.9 66.9 50.8 66.4 50.7 65.9 Z  M 27.6 71.2 C 27.1 71.7 27.1 72.4 27.2 73.3 C 27.7 72.7 27.7 72 27.6 71.2 Z  M 26.6 69.7 C 26.1 70.2 26.1 70.9 26.2 71.8 C 26.7 71.2 26.7 70.5 26.6 69.7 Z  M 27.5 67.9 L 27.5 67.9 L 27.5 67.9 L 27.5 67.9 Z  M 27.5 68 C 27 68.5 27 69.2 27.1 70.1 C 27.6 69.4 27.6 68.7 27.5 68 Z  M 26.1 68 L 26.1 68 L 26.1 68 L 26.1 68 Z  M 26.1 68 C 25.6 68.5 25.6 69.2 25.7 70.1 C 26.2 69.5 26.2 68.7 26.1 68 Z  M 25.7 71.2 C 25.2 71.7 25.2 72.4 25.3 73.3 C 25.8 72.7 25.8 72 25.7 71.2 Z  M 51.2 78.1 L 50.5 78.8 L 51.4 79.8 L 52.2 79.1 L 51.2 78.1 Z  M 50.9 74.1 L 50.9 71.3 L 47.8 71.3 L 48.7 72.3 L 50.2 72.3 L 50.2 73.7 L 48 75.6 L 48 78.7 L 50 78.7 L 50.7 77.9 L 50 77.3 L 49.7 77.7 L 49 77.7 L 49 75.8 L 50.9 74.1 Z  M 45.2 73.3 L 44.8 73.7 L 45.4 74.3 L 45.8 73.9 L 45.2 73.3 Z  M 44.8 75.6 L 42.9 73.8 L 42.4 74.2 L 44.3 75.9 L 47 75.9 L 47 74.9 L 44.8 75.6 Z  M 46.6 71.2 L 43.7 71.2 L 43.7 72.8 L 45.7 71.8 L 48 74 L 48.8 73.4 L 46.6 71.2 Z  M 42.5 72.4 L 42.5 71.2 L 39.6 71.2 L 39.6 71.2 L 39.6 72.8 L 40 72.8 L 40 71.7 L 42 71.7 C 42.3 71.8 42.3 72 42.1 72.3 L 39.6 74.8 L 39.6 76 L 42.1 76 L 40.9 75 L 40.9 74.2 M 38.8 77.1 L 38.8 71 L 38.1 71 L 38.1 77.7 L 47.2 77.7 L 47.2 77.2 L 38.8 77.1 Z  M 51.7 71.2 L 51.7 74 L 52.4 73.6 L 52.4 72.2 L 54 72.2 L 54.9 71.2 L 51.7 71.2 M 54 76.5 L 54 77.5 L 53.4 77.5 L 51.1 75.4 L 50.5 75.9 L 53.3 78.7 L 55.1 78.6 L 55.1 75.3 L 54 76.5 Z  M 57.4 73.3 L 56.8 73.9 L 57.2 74.3 L 57.8 73.7 L 57.4 73.3 Z  M 59.8 73.8 L 57.9 75.6 L 55.8 74.9 L 55.8 75.9 L 58.5 75.9 L 60.4 74.2 L 59.8 73.8 Z  M 56.5 71.2 L 52.5 75.4 L 53 75.8 L 57 71.8 L 59 72.8 L 59 71.2 L 56.5 71.2 M 63.1 72.8 L 63.1 71.2 L 63 71.2 L 60.1 71.2 L 60.1 72.4 L 61.7 74 L 61.7 74.8 L 60.5 75.8 L 63 75.8 L 63 74.6 L 60.5 72.1 C 60.3 71.8 60.4 71.6 60.6 71.5 L 62.6 71.5 L 62.6 72.6 M 63.9 70.9 L 63.9 77 L 55.5 77 L 55.5 77.5 L 64.6 77.5 L 64.6 70.8 L 63.9 70.8 M 64.6 70.9 L 64.6 70.9 L 64.6 70.9 L 64.6 70.9 Z  M 40.1 83.4 L 40.1 78.6 L 39.3 78.6 L 39.3 84.7 L 40.7 84.7 C 40.3 84.4 40.1 83.9 40.1 83.4 Z  M 39.7 85.5 L 40.7 86.6 L 41.6 86.6 L 41.6 85.5 L 39.7 85.5 Z  M 38.6 85.2 L 38.6 78.2 L 38.2 78.2 L 38.3 85.4 C 38.5 86.2 39 86.9 39.8 87.3 L 39.8 89.3 L 40.2 89.3 L 40.2 87.1 C 39.3 86.7 38.7 86 38.6 85.2 Z  M 37.3 85.2 L 37.3 78 L 30.9 78 L 30.9 85.3 C 30.9 85.9 30.7 86.6 30.4 87.1 L 38 87.1 C 37.6 86.6 37.3 86 37.3 85.2 Z  M 29.6 88 L 38.5 88 L 38.5 89.8 L 29.6 89.8 L 29.6 88 L 29.6 88 Z  M 62.6 78.6 L 62.6 83.4 C 62.6 83.9 62.4 84.4 62 84.7 L 63.4 84.7 L 63.4 78.6 L 62.6 78.6 Z  M 61.1 85.5 L 61.1 86.6 L 62 86.6 L 63 85.5 L 61.1 85.5 Z  M 64.2 78.2 L 64.2 85.2 C 64 86 63.5 86.7 62.7 87.1 L 62.7 89.3 L 63.1 89.3 L 63.1 87.3 C 63.9 86.9 64.4 86.2 64.6 85.4 L 64.6 78.2 L 64.2 78.2 Z  M 71.9 85.4 L 71.9 78 L 65.5 78 L 65.5 85.2 C 65.4 85.9 65.2 86.6 64.8 87.1 L 72.5 87.1 C 72 86.7 71.9 86 71.9 85.4 Z  M 64.2 88 L 73.1 88 L 73.1 89.8 L 64.2 89.8 L 64.2 88 L 64.2 88 L 64.2 88 Z  M 73.9 88.9 L 73.9 90.6 L 63.1 90.6 L 61.9 89.4 L 61.8 87.3 C 60.2 87.4 59.3 86.7 59.5 85 L 43.2 85 C 43.4 86.7 42.5 87.4 40.9 87.3 L 40.8 89.4 L 39.6 90.6 L 28.8 90.6 L 28.8 88.8 L 24 92.3 L 78.7 92.3 M 17.3 98.5 L 85.4 98.5 L 85.4 101.9 L 17.3 101.9 L 17.3 98.5 L 17.3 98.5 Z  M 80.5 94.7 L 80.5 96.5 L 22.2 96.5 L 22.2 94.7 L 18.2 97.7 L 84.6 97.7 L 80.5 94.7 Z  M 23 93 L 79.7 93 L 79.7 95.7 L 23 95.7 L 23 93 L 23 93 Z  M 52.1 24.9 C 52.1 25.3 51.8 25.6 51.4 25.6 C 51 25.6 50.7 25.3 50.7 24.9 C 50.7 24.5 51 24.2 51.4 24.2 C 51.8 24.2 52.1 24.6 52.1 24.9 Z  M 56.2 29.4 C 56.2 29.8 55.9 30.1 55.5 30.1 C 55.1 30.1 54.8 29.8 54.8 29.4 C 54.8 29 55.1 28.7 55.5 28.7 C 55.8 28.7 56.2 29 56.2 29.4 Z  M 47.9 29.4 C 47.9 29.8 47.6 30.1 47.2 30.1 C 46.8 30.1 46.5 29.8 46.5 29.4 C 46.5 29 46.8 28.7 47.2 28.7 C 47.6 28.7 47.9 29 47.9 29.4 Z  M 51.6 29.2 L 51.6 26.3 L 51.2 26.3 L 51.2 29.2 L 48.5 29.2 L 48.5 29.6 L 51.2 29.6 L 51.2 32.5 L 51.6 32.5 L 51.6 29.6 L 54.1 29.6 L 54.1 29.2 L 51.6 29.2 Z  M 51.3 22 C 47.7 22 44.6 23.6 43.2 25.9 L 43.2 46.3 C 43.6 45.9 43.9 45.5 44.3 45.1 C 44.1 44.6 44.4 44 45 43.8 C 45.2 43.7 45.4 43.7 45.6 43.8 C 45.8 43.6 46 43.4 46.2 43.2 C 46.1 42.8 46.2 42.4 46.5 42.2 C 46.3 41.9 46.4 41.5 46.7 41.4 L 46.7 40.7 C 45.8 39.9 45.6 38.5 46.4 37.6 L 46.4 37.6 C 46.6 37.4 46.7 37.3 46.9 37.1 C 46.6 35.8 48.3 34.6 49.6 35.2 L 50.2 35.1 C 49.6 34.5 49.6 33.6 50.2 33 L 50.2 33 C 50.3 32.9 50.3 32.9 50.4 32.8 L 50.4 30 L 48.2 30 C 47.7 30.7 46.8 30.9 46.1 30.4 C 45.4 29.9 45.2 29 45.7 28.3 C 46.2 27.6 47.1 27.4 47.8 27.9 C 48 28 48.1 28.2 48.2 28.3 L 50.4 28.3 L 50.4 25.9 C 49.7 25.4 49.6 24.5 50 23.8 C 50.5 23.1 51.4 23 52.1 23.4 C 52.8 23.9 52.9 24.8 52.5 25.5 C 52.4 25.7 52.3 25.8 52.1 25.9 L 52.1 28.3 L 54.1 28.3 C 54.6 27.6 55.5 27.4 56.2 27.9 C 56.9 28.4 57.1 29.3 56.6 30 C 56.1 30.7 55.2 30.9 54.5 30.4 L 54.5 30.4 C 54.3 30.3 54.2 30.2 54.1 30 L 52.1 30 L 52.1 33 L 52.1 33 C 52.8 33.5 52.9 34.4 52.5 35 C 52.4 35.1 52.3 35.2 52.3 35.3 L 52.9 35.4 C 54.2 34.8 55.9 36 55.6 37.3 C 56.6 38 56.9 39.3 56.2 40.3 C 56.1 40.5 55.9 40.7 55.7 40.8 L 55.7 41.5 C 55.9 41.6 56 42 55.9 42.3 C 56.2 42.6 56.3 42.9 56.2 43.3 C 56.4 43.5 56.6 43.7 56.9 43.9 C 57.4 43.7 58 44 58.2 44.5 C 58.3 44.7 58.3 44.9 58.2 45.1 C 58.6 45.5 58.9 45.9 59.3 46.3 L 59.3 26 C 58 23.7 54.9 22.1 51.3 22 L 51.3 22 L 51.3 22 Z  M 47.3 41.1 L 55.4 41.1 L 55.4 41.6 L 47.3 41.6 L 47.3 41.1 L 47.3 41.1 Z  M 50.2 36.3 C 50.8 35.7 51.9 35.7 52.5 36.3 L 52.5 36.3 C 52.5 35.4 50.2 35.4 50.2 36.3 Z  M 47.8 37 L 49.3 36.2 C 48.9 35.7 47.7 36.1 47.8 37 Z  M 47.3 39.9 L 47.3 38.2 C 46.7 38.4 46.5 39.7 47.3 39.9 Z  M 49.3 40.2 L 49.3 38 C 48.5 38.2 48.2 39.9 49.3 40.2 Z  M 53.4 38 L 53.4 40.2 C 54.5 39.9 54.2 38.2 53.4 38 Z  M 55.4 38.3 L 55.4 40 C 56.2 39.7 56 38.4 55.4 38.3 Z  M 53.4 36.2 L 54.9 37 C 55 36.1 53.8 35.7 53.4 36.2 Z  M 39.9 11.2 L 39.9 11.9 L 40.7 11.9 L 39.9 11.2 Z  M 38.5 12 L 39.3 12 L 39.3 11.3 L 38.5 12 Z  M 39.6 29 L 39.6 50.8 L 40 50.3 L 40 29 L 39.6 29 Z  M 61.2 47.8 C 61.1 47.7 61 47.7 60.9 47.7 C 60.8 47.7 60.7 47.7 60.6 47.8 L 61.2 48.5 C 61.4 48.3 61.4 48 61.2 47.8 L 61.2 47.8 L 61.2 47.8 Z  M 41.8 47.7 C 41.7 47.7 41.5 47.8 41.5 47.8 C 41.3 48 41.3 48.3 41.5 48.5 L 42.1 47.8 C 42 47.7 41.9 47.7 41.8 47.7 L 41.8 47.7 L 41.8 47.7 Z  M 40.9 48.6 L 40.9 49.2 L 41.1 48.9 C 41.1 48.8 41 48.8 40.9 48.6 Z  M 36.9 25.6 L 36.9 54.8 C 37.3 54.3 37.7 53.7 38.1 53.2 C 37.6 52.9 37.5 52.2 37.9 51.8 C 38.1 51.5 38.4 51.4 38.7 51.4 C 38.8 51.4 38.8 51.4 38.9 51.4 L 38.9 28.6 C 38.9 28.4 39.1 28.2 39.3 28.1 L 40.6 28.1 C 40.8 28.1 41 28.3 41 28.6 L 41 47.7 C 41 47.6 41.1 47.6 41.1 47.5 C 41.5 47.1 42.1 47 42.5 47.3 L 42.5 47.3 L 42.5 25.6 L 42.5 25.6 L 36.9 25.6 L 36.9 25.6 L 36.9 25.6 Z  M 61.6 48.9 L 61.8 49.2 L 61.8 48.7 C 61.7 48.8 61.7 48.8 61.6 48.9 Z  M 38.6 51.9 C 38.4 51.9 38.2 52.1 38.2 52.3 C 38.2 52.4 38.3 52.6 38.4 52.6 L 38.8 52 C 38.8 51.9 38.7 51.9 38.6 51.9 Z  M 64.4 52.1 C 64.3 52 64.2 51.9 64.1 51.9 C 64 51.9 63.9 51.9 63.8 52 L 64.2 52.6 C 64.5 52.5 64.5 52.3 64.4 52.1 C 64.5 52.1 64.5 52.1 64.4 52.1 L 64.4 52.1 L 64.4 52.1 Z  M 51.8 9.1 L 51.8 10.2 L 52.6 9.6 L 51.8 9.1 Z  M 50.1 9.6 L 50.9 10.2 L 50.9 9.1 L 50.1 9.6 Z  M 56.1 18.9 L 57.1 19.4 L 57.1 17.8 L 56.1 18.9 Z  M 45.5 17.8 L 45.5 19.4 L 46.5 18.9 L 45.5 17.8 Z  M 43.4 22.8 L 43.4 23.2 C 45.1 21.7 47.2 20.8 49.4 20.5 L 48.5 19.6 L 48.5 18.7 L 44.7 14.7 L 43.2 14.7 L 43.2 22 C 44.3 21.3 45.5 20.7 46.8 20.3 L 46.8 19.9 L 45.3 20.5 C 44.9 20.7 44.7 20.6 44.7 20.1 L 44.7 16.8 C 44.8 16.5 45 16.4 45.3 16.6 L 48 19 L 48 20.3 C 46.4 20.9 44.8 21.8 43.4 22.8 Z  M 54.4 14.4 L 53.8 15 L 54.9 16.2 L 55.4 15.6 L 54.4 14.4 Z  M 55.8 13 L 55.1 13.7 L 56.6 15 L 57.3 14.3 L 57.3 13 L 55.8 13 Z  M 46.9 13 L 45.4 13 L 45.4 14.3 L 46.1 15 L 47.6 13.7 L 46.9 13 Z  M 49.4 13.2 L 46.8 15.5 L 47.6 16.4 L 50.2 14.1 L 49.4 13.2 Z  M 49.6 10 L 47.4 10 L 47.4 12.2 L 48 12.9 L 48.7 12.3 L 48.3 11.8 C 48.3 11.5 48.4 11.2 48.8 11.4 L 51 13.7 L 52.1 12.7 M 60.9 51.2 L 60.9 51.2 C 60.7 51.2 60.5 51.4 60.5 51.6 C 60.5 51.8 60.7 52 60.9 52 C 61.1 52 61.3 51.8 61.3 51.6 C 61.3 51.4 61.1 51.2 60.9 51.2 Z  M 41.9 51.2 L 41.9 51.2 C 41.7 51.2 41.5 51.4 41.5 51.6 C 41.5 51.8 41.7 52 41.9 52 C 42.1 52 42.3 51.8 42.3 51.6 C 42.3 51.4 42.1 51.2 41.9 51.2 Z  M 51.7 53.1 C 51.7 53.3 51.5 53.5 51.3 53.5 C 51.1 53.5 50.9 53.3 50.9 53.1 C 50.9 52.9 51.1 52.7 51.3 52.7 C 51.6 52.7 51.7 52.9 51.7 53.1 Z  M 53.6 54.5 C 53.6 54.7 53.4 54.9 53.2 54.9 C 53 54.9 52.8 54.7 52.8 54.5 C 52.8 54.3 53 54.1 53.2 54.1 C 53.4 54.1 53.6 54.2 53.6 54.5 Z  M 49.5 54.1 L 49.5 54.1 C 49.3 54.1 49.1 54.3 49.1 54.5 C 49.1 54.7 49.3 54.9 49.5 54.9 C 49.7 54.9 49.9 54.7 49.9 54.5 C 49.9 54.2 49.7 54.1 49.5 54.1 Z  M 46.9 45.3 C 46.7 45.3 46.5 45.5 46.5 45.7 C 46.5 45.9 46.7 46.1 46.9 46.1 C 47.1 46.1 47.3 45.9 47.3 45.7 C 47.3 45.4 47.1 45.3 46.9 45.3 Z  M 55.8 45.2 L 55.8 45.2 C 55.6 45.2 55.4 45.4 55.4 45.6 C 55.4 45.8 55.6 46 55.8 46 C 56 46 56.2 45.8 56.2 45.6 C 56.2 45.4 56.1 45.2 55.8 45.2 Z  M 51.4 45.4 C 51.2 45.4 51 45.6 51 45.8 C 51 46 51.2 46.2 51.4 46.2 C 51.6 46.2 51.8 46 51.8 45.8 C 51.8 45.6 51.6 45.4 51.4 45.4 C 51.4 45.4 51.4 45.4 51.4 45.4 Z  M 43.9 51 C 44.1 51.1 44.3 51.2 44.4 51.4 L 44.7 50.8 C 44.5 50.9 44.2 51 43.9 51 Z  M 40.3 57 L 41.9 57 L 42.3 56.1 C 41.7 56.6 41 56.9 40.3 57 Z  M 38.9 53.9 L 38.9 53.8 C 38.2 54.8 37.4 55.9 36.8 56.9 L 38.6 56.9 C 38.1 56 38 55.1 39.1 54.3 C 39.4 53.9 39 54.1 38.9 53.9 Z  M 43.5 53.2 C 43.1 53.2 42.7 52.9 42.5 52.5 C 42 52.9 41.3 52.8 41 52.3 C 40.8 52 40.7 51.7 40.8 51.4 C 40.3 52 39.8 52.7 39.3 53.4 C 39.6 53.4 39.9 53.6 40.1 53.8 C 40.2 54 40.4 53.9 40.6 53.8 L 41 53.3 C 41.3 52.9 41.7 53 42.1 53.4 C 42.2 53.7 42 54 42.5 54.1 C 42.7 53.9 43 53.9 43.3 53.9 L 43.5 53.2 L 43.5 53.2 L 43.5 53.2 L 43.5 53.2 Z  M 43.1 50.9 C 42.6 50.5 42.4 49.8 42.6 49 C 42.1 49.6 41.7 50.1 41.2 50.7 C 41.7 50.4 42.4 50.6 42.7 51.1 L 42.7 51.1 C 42.7 51.2 42.8 51.2 42.8 51.2 C 43 51.1 43.1 51 43.3 51 C 43.3 51 43.2 50.9 43.1 50.9 Z  M 45.7 45.6 L 45.7 45.6 L 45.7 45.6 L 45.7 45.6 Z  M 45.8 45.9 C 45.8 45.8 45.8 45.7 45.8 45.6 C 45.8 45.6 45.8 45.5 45.8 45.5 C 45.5 45.9 45.1 46.2 44.8 46.5 C 45.4 46.2 46.1 46.5 46.4 47.1 L 46.4 47.1 C 46.5 47.3 46.5 47.4 46.5 47.6 C 46.7 47.2 46.9 46.9 47.2 46.6 C 46.5 46.9 45.9 46.5 45.8 45.9 L 45.8 45.9 L 45.8 45.9 Z  M 47.3 44 C 47.1 44.2 47 44.5 46.8 44.6 L 46.9 44.6 C 47.5 44.6 47.9 45 48 45.5 C 48.3 45 48.7 44.4 49 43.9 L 47.3 43.9 M 49 44 M 53.2 57 C 52 56.3 50.6 56.3 49.5 57 L 53.2 57 Z  M 60.3 55.7 L 60.8 56.9 L 62.4 56.9 C 61.6 56.8 60.9 56.4 60.3 55.7 Z  M 65.9 57 C 65.2 56 64.5 54.9 63.8 53.9 L 63.8 54 C 63.8 54.2 63.4 54 63.6 54.5 C 64.7 55.3 64.6 56.2 64.1 57.1 L 65.9 57 Z  M 61.9 51.3 C 62.1 51.9 61.7 52.5 61.1 52.7 C 60.8 52.8 60.4 52.7 60.2 52.5 C 60 52.9 59.6 53.2 59.2 53.2 L 59.2 53.2 L 59.5 53.9 C 59.8 53.8 60.1 53.9 60.3 54.1 C 60.8 54 60.7 53.7 60.7 53.4 C 61 53 61.4 52.9 61.8 53.3 L 62.2 53.8 C 62.3 53.9 62.5 54 62.7 53.8 C 62.9 53.5 63.2 53.4 63.5 53.4 C 62.9 52.6 62.4 52 61.9 51.3 Z  M 57.9 50.8 L 58.2 51.4 C 58.3 51.2 58.5 51.1 58.7 51 C 58.5 51 58.2 50.9 57.9 50.8 Z  M 60 48.9 C 60.2 49.7 60.1 50.5 59.5 50.8 C 59.4 50.9 59.4 50.9 59.3 50.9 C 59.5 50.9 59.6 51 59.8 51.1 C 60 50.5 60.7 50.3 61.3 50.5 C 61.4 50.5 61.4 50.5 61.4 50.6 C 61 50.1 60.5 49.5 60 48.9 Z  M 56.9 45.6 L 56.9 45.6 L 56.9 45.6 L 56.9 45.6 L 56.9 45.6 C 56.9 45.7 56.9 45.8 56.8 45.9 C 56.6 46.5 56 46.8 55.4 46.6 C 55.7 47 55.9 47.3 56.1 47.7 C 56.1 47.5 56.1 47.3 56.2 47.2 C 56.5 46.6 57.2 46.3 57.8 46.6 L 57.8 46.6 C 57.6 46.3 57.3 46 56.9 45.6 Z  M 53.7 43.9 L 53.7 43.9 L 53.7 43.9 Z  M 55.4 44 L 53.7 44 C 54.1 44.5 54.4 45.1 54.8 45.6 C 54.9 45 55.3 44.6 55.9 44.6 C 55.7 44.4 55.6 44.1 55.4 44 Z  M 57.3 20.4 L 55.8 19.8 L 55.8 20.2 C 57.1 20.6 58.3 21.2 59.4 21.9 L 59.4 14.7 L 58 14.7 L 54.2 18.7 L 54.2 19.7 L 53.3 20.6 C 55.5 20.9 57.6 21.8 59.3 23.3 L 59.3 22.9 C 57.9 21.9 56.4 21.1 54.7 20.4 L 54.7 19 L 57.3 16.4 C 57.7 16.3 57.8 16.3 57.9 16.6 L 57.9 20 C 58 20.5 57.7 20.6 57.3 20.4 Z  M 54.8 10 L 52.9 10 L 51.7 11 L 52.7 12 L 53.2 11.6 L 54 12.4 L 51.8 14.3 L 51.8 19.1 C 51.7 19.4 51.5 19.5 51.2 19.5 C 51 19.4 50.9 19.3 50.8 19.1 L 50.8 14.8 L 49.3 16.1 L 49.3 19 L 51.3 20.8 L 52.9 19.2 L 52.8 14.5 L 54.8 12.8 L 54.8 10 Z  M 36.8 12.9 L 42.4 12.9 L 42.4 24.8 L 36.8 24.8 L 36.8 12.9 L 36.8 12.9 Z  M 30 70.9 L 30 70.9 L 30 77.5 L 37.4 77.5 L 37.4 70.9 L 30 70.9 Z  M 65.3 70.9 L 65.3 77.6 L 72.7 77.6 L 72.7 70.9 L 72.7 70.9 L 65.3 70.9 Z  M 55 50.6 C 54.5 50.7 54 50.2 53.8 49.5 C 53.6 48.8 54 48.1 54.5 48.1 C 55 48 55.5 48.5 55.7 49.2 C 55.8 49.8 55.5 50.5 55 50.6 Z  M 48.9 49.5 C 48.8 50.2 48.2 50.7 47.7 50.6 C 47.2 50.5 46.9 49.8 47 49.2 C 47.1 48.5 47.7 48 48.2 48.1 L 48.2 48.1 C 48.7 48.2 49.1 48.8 48.9 49.5 Z  M 41.3 14.3 L 38 14.3 C 37.8 14.3 37.6 14.5 37.6 14.7 L 37.6 14.7 L 37.6 23 C 37.6 23.2 37.8 23.4 38 23.4 L 38 23.4 L 41.3 23.4 C 41.5 23.4 41.7 23.2 41.7 23 L 41.7 14.8 C 41.7 14.5 41.5 14.3 41.3 14.3 L 41.3 14.3 L 41.3 14.3 Z  M 71.8 76.6 L 66.2 76.6 L 66.2 71.8 L 71.8 71.8 L 71.8 76.6 L 71.8 76.6 Z  M 30.9 71.8 L 36.5 71.8 L 36.5 76.6 L 30.9 76.6 L 30.9 71.8 L 30.9 71.8 Z  M 78.4 93.5 L 24.4 93.5 C 24 94 24 94.7 24.4 95.2 L 78.4 95.2 C 78.8 94.8 78.8 94 78.4 93.5 Z  M 83.9 101.2 L 18.9 101.2 C 18.5 100.6 18.5 99.7 18.9 99.1 L 83.9 99.1 C 84.2 99.8 84.3 100.6 83.9 101.2 Z " fill="rgb(255,215,0)"/></g></svg>